<?xml version="1.0" encoding="utf-8"?>
<svg xmlns="http://www.w3.org/2000/svg" height="128" width="128" viewBox="0 0 128 128">
  <g>
    <rect height="128" width="128" fill="#FF8C00" />
    <path id="path1" transform="rotate(0,64,64) translate(32.3642164137426,30) scale(2.12499772012478,2.12499772012478)  " fill="#FFFFFF" d="M6.0385544,18.026129C6.1054057,18.027072 6.1732143,18.034556 6.2412105,18.049056 7.8021185,18.401052 10.799942,20.105038 10.970932,24.025002 10.994931,24.581998 10.563956,25.051993 10.006989,25.076993 9.9919896,25.077992 9.9769907,25.077992 9.9619913,25.077992 9.4250231,25.077992 8.9790492,24.654998 8.9550507,24.114001 8.811059,20.777032 5.9132296,20.044038 5.7902369,20.015038 5.2512685,19.88604 4.9132884,19.345044 5.039281,18.805049 5.1495245,18.333428 5.5705935,18.019525 6.0385544,18.026129z M19.732897,6.2837708C20.328859,6.2627702 20.760832,6.6917864 20.78483,7.2468075 20.929821,10.583933 23.82664,11.31596 23.950631,11.345962 24.488599,11.474967 24.826577,12.014987 24.700585,12.555007 24.592591,13.021025 24.180617,13.336037 23.721646,13.336037 23.64865,13.336037 23.573655,13.328036 23.49966,13.311036 21.937758,12.959023 18.939946,11.256958 18.769957,7.3358107 18.744959,6.7797897 19.176931,6.308772 19.732897,6.2837708z M10.512604,5.5906505C10.643526,5.5859805 10.777588,5.6070452 10.907835,5.6570483 11.428822,5.8550454 11.689804,6.4370745 11.491809,6.9580684 11.106806,7.9700279 9.8718405,10.388049 6.7228451,10.968064 6.6608341,10.980027 6.5989455,10.985032 6.5388879,10.985032 6.0608684,10.985032 5.6379018,10.645067 5.5479376,10.160022 5.4468649,9.611074 5.8089195,9.0850751 6.3568841,8.9850388 8.4208148,8.6050353 9.2788329,7.1030266 9.6068306,6.2410299 9.7553267,5.8502846 10.119838,5.604661 10.512604,5.5906505z M11.449002,2.0270984C8.3631222,2.0615983 7.1289171,4.6513735 7.0710273,4.7742786 6.9480295,5.0382763 6.7170333,5.2362745 6.4380376,5.3182737 2.5041027,6.4652635 2.0891097,9.6972346 2.0851099,9.7292342 1.8051143,11.571218 2.4771032,13.229203 3.0580938,14.258194 3.7840817,13.800198 4.6880668,13.406201 5.8100481,13.129204 6.067044,13.072205 8.1070104,12.676208 9.581986,13.828197 10.019979,14.170195 10.097978,14.805189 9.7549834,15.243185 9.4129889,15.682181 8.7789993,15.76018 8.3400068,15.417184 7.6000187,14.840189 6.2770405,15.092186 6.2640409,15.094187 2.2311072,16.090178 2.3921046,18.622155 2.3951044,18.647155 2.3981044,21.40413 4.2220745,21.998124 4.2410743,22.004125 4.6630672,22.134124 4.9520624,22.525121 4.9520626,22.967116L4.9520626,24.462102C4.9520624,25.244096 5.159059,25.818091 5.5840523,26.215087 6.4230381,26.997081 7.8710144,26.90408 7.8850145,26.90508 7.9090137,26.903081 7.9320133,26.902081 7.9560132,26.902081 8.4390049,26.902081 8.862998,27.247077 8.9519966,27.727073 9.34899,29.871055 11.982946,29.984054 12.009946,29.985053 13.718042,29.917554 13.983878,29.108264 14.025267,28.85658L14.02873,28.830495 14.02873,3.7728027 14.028809,3.7694691 14.025412,3.6451285C13.953781,2.3563004 12.805589,2.1577084 12.670935,2.1393023 12.234864,2.0571623 11.827971,2.0228617 11.449002,2.0270984z M18.425207,2.021661C18.057004,2.016773 17.661304,2.050071 17.23681,2.1307907 16.95199,2.184072 16.101255,2.4400661 16.048362,3.6524632L16.04582,3.7709345 16.045879,3.7732877 16.045879,28.874063C16.044848,28.906875,16.042988,28.940574,16.040256,28.975076L16.038371,28.993453 16.037807,29.002553 16.03778,29.001996 16.03778,29.002995 16.037807,29.002553 16.037926,29.00497C16.038717,29.034356 16.044342,29.275998 16.232784,29.485999 16.497791,29.779002 17.059805,29.955003 17.816824,29.985003 17.940327,29.975253 19.332022,29.865157 20.056075,28.708007L20.105816,28.622573 19.956094,28.554645C18.560604,27.871228 17.974056,26.366588 17.936553,25.264123 17.916552,24.70814 18.351587,24.241155 18.909633,24.222156 19.449677,24.162156 19.928717,24.635142 19.951718,25.188125 19.971721,25.592113 20.156735,26.90207 21.630857,26.90207L21.72458,26.906796 21.813357,26.903205C22.22466,26.880643 22.960389,26.770728 23.473964,26.294974 23.903974,25.893971 24.11398,25.294967 24.11398,24.46296L24.11398,22.96795C24.11398,22.514945 24.415988,22.116942 24.853997,21.994943 25.061004,21.932942 26.95905,21.291937 26.95905,18.730917 26.95905,18.650916 26.968051,18.570916 26.98705,18.493916 26.989051,18.479915 27.054053,18.138912 26.919049,17.671909 25.849023,18.689917 24.688994,19.345922 23.849973,19.610924 23.321959,19.781925 22.751946,19.484922 22.585942,18.952919 22.416938,18.421915 22.711946,17.85591 23.242959,17.68891 23.775971,17.519908 25.049003,16.842902 26.107028,15.609893 26.160029,15.466892 26.245032,15.331891 26.365035,15.219891 26.406035,15.18089 26.450038,15.145889 26.497039,15.114889 27.413062,13.840879 28.040076,12.080866 27.614066,9.799849 27.588065,9.5928473 27.171056,6.4488233 23.294959,5.3178145 23.006951,5.2348141 22.770946,5.0258124 22.651944,4.7508101 22.598506,4.633247 21.423435,2.0614641 18.425207,2.021661z M18.322308,0.00016498566C21.484868,-0.021163464 23.469964,2.0285397 24.288983,3.5178008 29.102103,5.1488134 29.590116,9.3278453 29.610116,9.5098472 30.103127,12.148867 29.434112,14.321883 28.343083,15.976896 29.038102,17.074904 29.090102,18.198913 28.975101,18.836918 28.934098,21.516938 27.36806,23.00895 26.13103,23.643954L26.13103,24.46296C26.13103,25.876971 25.693019,26.99598 24.828998,27.788985 23.974977,28.571992 22.92295,28.824994 22.193933,28.898995 21.350911,31.232013 19.033854,31.956017 17.815824,32.000018 16.536542,31.954518 15.587254,31.631095 14.93714,31.039794L14.925546,31.028539 14.799294,31.12946C14.177963,31.600492 13.2808,31.952098 12.014946,32.000035 10.613969,31.957036 8.0790107,31.236041 7.1940256,28.905063 6.3870388,28.837064 5.1720588,28.579066 4.2220746,27.703074 3.3680885,26.914081 2.9350958,25.82409 2.935096,24.462102L2.935096,23.60411C1.9731116,23.050115 0.38113785,21.686128 0.38113785,18.730154 0.31813908,17.98816 0.56713486,16.761171 1.5121193,15.606182 0.75113153,14.365192 -0.31285095,12.078213 0.087142467,9.4622364 0.10214233,9.3172381 0.63613367,5.1382754 5.4560543,3.5132899 6.312665,2.0336781 8.3620999,-0.011725426 11.558135,0.0071687698 12.014711,0.009868145 12.494688,0.054696083 12.99793,0.14932013 13.509421,0.22031975 14.271409,0.49381733 14.905523,1.0658116L15.003521,1.1583495 15.090132,1.0706577C15.682771,0.49752808 16.399289,0.22027588 16.894801,0.14377546 17.394689,0.048524857 17.870513,0.0032119751 18.322308,0.00016498566z" />
  </g>
</svg>

