<?xml version="1.0" encoding="utf-8"?>
<svg xmlns="http://www.w3.org/2000/svg" height="128" width="128" viewBox="0 0 128 128">
  <g>
    <rect height="128" width="128" fill="#F1F1F1" />
    <path id="path1" transform="rotate(0,64,64) translate(49.8092378973961,30) scale(2.125,2.125)  " fill="#FF8C00" d="M5.2780176,4.2000122C5.6780072,4.5 6.1780019,4.8000183 6.6779967,4.8000183 7.1779914,4.8000183 7.578012,4.5 7.9780016,4.3000183L8.0780063,4.2000122 8.1779809,4.3000183C8.5780015,4.6000061 8.9779907,4.7000122 9.4779859,4.7000122 9.9779802,4.7000122 10.477975,4.3000183 10.677955,4.3000183 10.877965,4.2000122 11.477965,4.2000122 11.77795,4.7000122 12.277944,5.4000244 11.77795,6 11.37796,6.2000122 10.277965,7.1000061 8.7779813,9.6000061 8.9779907,12.5L9.877976,12.5C10.477975,12.5 10.877965,12.900024 10.877965,13.5 10.877965,14.100006 10.477975,14.5 9.877976,14.5L8.9779907,14.5C8.8779865,19.900024 11.977959,25.200012 11.977959,25.200012 14.677913,28.600006 12.57796,30.600006 12.57796,30.600006 13.277934,31.300018 13.177928,32 13.177928,32L7.6779862,32 7.0780173,32 6.2780071,32 6.0780278,32 0.17806506,32C0.17806506,32 -0.021914537,31.300018 0.77806495,30.600006 0.77806489,30.600006 -1.3219192,28.600006 1.3780649,25.200012 1.3780647,25.200012 4.5780435,19.900024 4.4780384,14.5L3.2780388,14.5C2.7780438,14.5 2.278049,14.100006 2.2780493,13.5 2.278049,13 2.6780389,12.5 3.2780388,12.5L4.3780332,12.5C4.5780435,9.6000061 3.078059,7.1000061 1.9780643,6.3000183 1.5780747,6 1.07808,5.4000244 1.5780747,4.7000122 1.9780645,4.2000122 2.4780593,4.3000183 2.6780389,4.3000183 2.9780541,4.4000244 3.3780437,4.7000122 3.8780387,4.7000122 4.3780332,4.7000122 4.878028,4.5 5.2780176,4.2000122z M6.7780018,0C7.8779965,0 8.7779813,0.90002441 8.7779813,2 8.7779813,3.1000061 7.8779965,4 6.7780018,4 5.6780072,4 4.7780228,3.1000061 4.7780228,2 4.7780228,0.90002441 5.6780072,0 6.7780018,0z" />
  </g>
</svg>

