<?xml version="1.0" encoding="utf-8"?>
<svg xmlns="http://www.w3.org/2000/svg" height="128" width="128" viewBox="0 0 128 128">
  <g>
    <ellipse cy="64" cx="64" stroke-width="4.24986675799401" ry="61.875066621003" rx="61.875066621003" stroke="#F1F1F1" fill="transparent" />
    <path id="path1" transform="rotate(0,64,64) translate(30,30.0053033358124) scale(2.12493337899701,2.12493337899701)  " fill="#FF8C00" d="M21.031992,10.650602L21.031992,23.348473 21.242788,23.2526C23.7277,22.069521 25.462008,19.59528 25.462008,16.999037 25.462008,14.403761 23.7277,11.92955 21.242788,10.746474z M3.0000033,9.999062C2.4480028,9.999062,2.0000024,10.448062,2.0000024,10.999062L2.0000024,20.999062C2.0000024,21.550063,2.4480028,21.999062,3.0000033,21.999062L7.0589925,21.999062 7.0589925,9.999062z M23.973958,4.9975099C24.135064,5.0023827 24.297194,5.0462698 24.445944,5.1328329 29.175982,7.8938541 32.001004,12.329888 32.001004,16.996924 32.001004,21.66396 29.175982,26.099993 24.445944,28.861014 24.287943,28.953015 24.113942,28.997015 23.94294,28.997015 23.598938,28.997015 23.263936,28.820013 23.078934,28.501011 22.799932,28.024008 22.960933,27.412003 23.437937,27.133002 27.608969,24.698983 30.000988,21.003954 30.000988,16.996924 30.000988,12.989893 27.608969,9.2948651 23.437937,6.8608465 22.960933,6.5818443 22.799932,5.9698395 23.078934,5.4928359 23.27006,5.1648959 23.619528,4.9867892 23.973958,4.9975099z M18.142208,2.0000536C17.946908,2.0062417,17.745574,2.0713147,17.557995,2.1938149L9.0590096,8.9438452 9.0590096,22.970944 17.625988,29.85397C17.893993,30.027005 18.285991,30.061978 18.600994,29.891995 18.730983,29.822964 19.031993,29.611964 19.031993,29.152975L19.031993,26.007361 19,26.015015 19,7.9830584 19.031993,7.9907388 19.031993,2.8448202C19.031993,2.5227966 18.874996,2.253813 18.603984,2.1067786 18.486236,2.0434233 18.357941,2.0083241 18.225481,2.0010108 18.197884,1.9994871 18.170107,1.9991694 18.142208,2.0000536z M18.199766,6.6910507E-06C18.670131,0.0010217976 19.130055,0.11754559 19.553997,0.3468179 20.47999,0.8468213 21.031992,1.7807874 21.031992,2.8448202L21.031992,8.5097946 21.363597,8.6276497C24.909441,9.9720473 27.46201,13.389451 27.46201,16.999037 27.46201,20.609528 24.909441,24.027016 21.363597,25.371422L21.031992,25.489277 21.031992,29.152975C21.031992,30.22 20.476985,31.15598 19.546993,31.65403 19.12199,31.882975 18.650997,31.996012 18.174984,31.996012 17.579998,31.996012 16.976986,31.818034 16.447995,31.467017L7.1450491,23.999062 3.0000033,23.999062C1.3460016,23.999062,0,22.653061,0,20.999062L0,10.999062C0,9.3450617,1.3460016,7.999062,3.0000033,7.999062L7.0589925,7.999062 7.0589925,7.9778494 16.387997,0.57478612C16.972993,0.18833921,17.59501,-0.0012985053,18.199766,6.6910507E-06z" />
  </g>
</svg>

