<?xml version="1.0" encoding="utf-8"?>
<svg xmlns="http://www.w3.org/2000/svg" height="128" width="128" viewBox="0 0 128 128">
  <g>
    <ellipse cy="64" cx="64" ry="64" rx="64" fill="#8BF4ED" />
    <path id="path1" transform="rotate(0,64,64) translate(30.2656045450698,30) scale(2.12493363230089,2.12493363230089)  " fill="#DF1313" d="M21,10.643021L21,23.353018C23.523001,22.230018 25.25,19.729019 25.25,16.99802 25.25,14.26602 23.523001,11.76502 21,10.643021z M3,9.9990195C2.4489999,9.9990195,2,10.44702,2,10.99902L2,20.998024C2,21.550026,2.4489999,21.998026,3,21.998026L6.9999998,21.998026 6.9999998,9.9990195z M23.785234,4.9975709C23.946419,5.0029348 24.108671,5.0473498 24.257738,5.134539 28.94891,7.8955964 31.751011,12.329688 31.751011,16.996784 31.751011,21.66288 28.949909,26.096971 24.257738,28.857029 24.098732,28.951031 23.923725,28.996033 23.75172,28.996033 23.408707,28.996033 23.075695,28.820028 22.888688,28.503021 22.608678,28.027012 22.767684,27.413999 23.243702,27.134992 27.378853,24.699943 29.750938,21.004867 29.750938,16.996784 29.750938,12.986701 27.378853,9.2916249 23.242701,6.8585747 22.767684,6.5785688 22.607677,5.9655565 22.888688,5.4895467 23.081196,5.1629771 23.43063,4.9857706 23.785234,4.9975709z M18.120077,1.9987007C17.956972,2.0041674,17.764116,2.0537437,17.554993,2.1915592L8.9999999,8.9446753 8.9999999,22.967852 17.618988,29.850944C18.028992,30.120968 18.423004,29.972956 18.571014,29.893946 18.842987,29.748953 19,29.477953 19,29.150953L19,26.015016 19,7.9800209 19,2.8445834C19,2.5195667 18.843994,2.2485667 18.572998,2.1025685 18.490309,2.0575584 18.329782,1.9916718 18.120077,1.9987007z M18.177278,1.2394594E-08C18.643644,-4.3496875E-05 19.100119,0.11446925 19.520996,0.34152719 20.446991,0.83955038 21,1.7755682 21,2.8445834L21,8.4998931 21.347369,8.6241244C24.827196,9.9521254 27.25,13.309583 27.25,16.99802 27.25,20.685551 24.827196,24.042923 21.347369,25.370914L21,25.495146 21,29.150953C21,30.222959 20.444,31.160961 19.513,31.658985 19.084991,31.886984 18.621002,32.001001 18.153992,32.001001 17.56601,32.001001 16.971985,31.819998 16.438995,31.463974L7.084134,23.998026 3,23.998026C1.3460002,23.998026,0,22.653025,0,20.998024L0,10.99902C0,9.3450192,1.3460002,7.999019,3,7.999019L6.9999998,7.999019 6.9999998,7.9766444 16.384003,0.57254821C16.961695,0.18948059,17.577663,5.6037963E-05,18.177278,1.2394594E-08z" />
  </g>
</svg>

