<?xml version="1.0" encoding="utf-8"?>
<svg xmlns="http://www.w3.org/2000/svg" height="128" width="128" viewBox="0 0 128 128">
  <g>
    <rect height="128" width="128" fill="#F1F1F1" />
    <path id="path1" transform="rotate(0,64,64) translate(32.4202804551033,30) scale(2.12493489882123,2.12493489882123)  " fill="#FF8C00" d="M21.669764,18.875012L19.581255,30.000984 23.04493,30.000984C23.210926,30.000984,23.302925,29.938983,23.318926,29.923984L25.365896,18.914011C25.319897,18.894012,25.249899,18.875012,25.156901,18.875012z M9.0570804,18.875012L11.146004,30.000984 17.545881,30.000984 19.634806,18.875012z M3.3552052,18.875012C3.2622065,18.875012,3.1922073,18.894012,3.1472077,18.913012L5.2271787,29.994985C5.2261788,29.950984,5.3161775,30.000984,5.4671757,30.000984L9.1115419,30.000984 7.0221864,18.875012z M14.563999,5.0169712C11.295002,5.0169711 8.4799997,7.4579492 8.0160028,10.694947 7.9770014,10.968934 7.8250009,11.214966 7.5979997,11.372925 7.3710024,11.532959 7.0880014,11.592957 6.8170015,11.530945 6.5230028,11.467957 6.2480013,11.437928 5.9760019,11.437928 3.7840006,11.437928 2.0000002,13.221984 2.0000002,15.413939 2.0000002,15.956205 2.1102518,16.489442 2.3214707,16.981644L2.3652,17.074693 2.4532487,17.038585C2.7334444,16.932247,3.0402095,16.875017,3.3552052,16.875017L7.6611449,16.875017 7.7613894,16.880073 7.8521115,16.875017 20.839775,16.875017 20.949431,16.881111 20.955597,16.880171C20.989247,16.876763,21.023396,16.875017,21.057957,16.875017L25.156901,16.875017C25.336899,16.875017,25.514208,16.893704,25.68541,16.929563L25.736649,16.941685 25.829014,16.887475C27.004057,16.14295 27.723,14.849371 27.723,13.445983 27.723,11.200928 25.897,9.3739638 23.652001,9.3739638 23.096001,9.3739638 22.551003,9.4889541 22.032002,9.7129526 21.785,9.8219614 21.504002,9.8239756 21.255001,9.7209482 21.005001,9.619935 20.808003,9.4199843 20.707001,9.1699843 19.690003,6.6469753 17.278999,5.0169711 14.563999,5.0169712z M14.862001,1.9999964C14.245313,1.9999962,13.723028,2.4073119,13.548851,2.9666283L13.519122,3.0820854 13.834418,3.0482258C14.075336,3.0275265 14.318687,3.0169719 14.563999,3.0169719 15.0665,3.016972 15.560992,3.0598426 16.043402,3.142826L16.220982,3.1764847 16.209007,3.0982833C16.080548,2.472386,15.52525,1.9999962,14.862001,1.9999964z M14.862001,0C16.722,0 18.237,1.5139972 18.237,3.3749937 18.237,3.4524935 18.234312,3.5298059 18.228985,3.6068214L18.207005,3.8187492 18.249497,3.8379157C19.896107,4.614195 21.274124,5.9059842 22.16,7.5619531 22.647,7.4369531 23.146,7.3739648 23.652001,7.3739648 27,7.3739648 29.723,10.097962 29.723,13.445983 29.723,15.328352 28.855177,17.079758 27.404854,18.219629L27.309557,18.291954 27.331619,18.365763C27.397869,18.612262,27.408367,18.871012,27.359869,19.130012L25.247898,30.380983C25.0709,31.318981,24.144915,32.00098,23.04493,32.00098L18.376839,32.00098 5.4671757,32.00098C4.367191,32.00098,3.441204,31.318981,3.2642063,30.380983L1.152236,19.130012C1.1340486,19.032888,1.124123,18.935797,1.1223078,18.839376L1.1228095,18.784664 1.1167105,18.780765C1.0131108,18.704796 0.92250126,18.607579 0.85200154,18.490963 0.2940027,17.563962 1.7057711E-07,16.499937 0,15.413939 1.7057711E-07,12.033936 2.8100015,9.2959609 6.2320024,9.4439712 6.9392506,6.7666023 8.9064915,4.6177534 11.414501,3.6208098L11.494558,3.5908734 11.490795,3.5375343C11.488266,3.483556 11.487001,3.4293686 11.487001,3.3749937 11.487001,1.5139972 13.001001,0 14.862001,0z" />
  </g>
</svg>

