<?xml version="1.0" encoding="utf-8"?>
<svg xmlns="http://www.w3.org/2000/svg" height="128" width="128" viewBox="0 0 128 128">
  <g>
    <ellipse cy="64" cx="64" ry="64" rx="64" fill="#7B8199" />
    <path id="path1" transform="rotate(0,64,64) translate(30,30.0679908162143) scale(2.12486701545917,2.12486701545917)  " fill="#FFFFFF" d="M15.442844,12.73101L15.424137,12.777247C14.376016,15.308013 11.747622,19.355073 5.1577282,23.87299 4.0577097,24.555991 1.2086611,26.668995 1.0106573,28.375001 0.95765591,28.832001 1.1056585,29.227002 1.463665,29.584002L2.3536806,30.474005C2.7106867,30.832005 3.1056929,30.980006 3.5617008,30.927006 5.2697306,30.729004 7.379766,27.878998 8.0497775,26.797995 12.457853,20.363513 16.414318,17.698033 18.955447,16.594061L19.116598,16.525616 19.042915,16.503361C18.201059,16.226429 17.45915,15.775691 16.846023,15.161995 16.193283,14.509018 15.73808,13.715473 15.472352,12.834401z M23.93808,1.1358757C22.303059,1.6318518 20.696054,2.6178832 19.360047,3.953893 15.968026,7.3479038 15.158023,12.058942 17.553028,14.455019 18.452051,15.354014 19.70505,15.828993 21.175061,15.828993 23.488065,15.828993 26.058088,14.640019 28.049099,12.647997 29.422125,11.273963 30.426128,9.6119609 30.90712,7.926949L24.728093,13.364983C24.531071,13.539973,24.230074,13.531977,24.044068,13.34301L22.736076,12.031964C22.552054,11.848979,22.54006,11.556984,22.706077,11.357947L28.094112,4.9228955 27.854091,4.6829033 21.075054,9.7629628C20.877055,9.9099374,20.597054,9.8919311,20.421058,9.7159658L18.900053,8.1929422C18.720028,8.0129485,18.704036,7.7269354,18.862058,7.5289355z M24.392347,0.00020214726C24.519148,0.0038015869,24.641582,0.055346215,24.733068,0.14685402L25.125069,0.53784826C25.304086,0.7179037,25.321084,1.0038558,25.163094,1.2018556L19.922062,7.8009105 20.822062,8.7019191 27.601098,3.6219199C27.79809,3.474885,28.079098,3.4928906,28.254117,3.6689177L29.125094,4.5398965C29.30811,4.7239189,29.321111,5.0159135,29.155125,5.21489L23.766082,11.649942 24.420077,12.304 30.69911,6.7789293C30.89711,6.60394,31.195116,6.6129122,31.382128,6.7999254L31.855124,7.2729516C31.977135,7.3949013 32.02813,7.5719047 31.989128,7.7399359 31.52013,9.7439199 30.373119,11.737956 28.756104,13.354973 26.853832,15.259013 24.446265,16.490786 22.150377,16.768981L22.057339,16.778887 21.981325,16.803107C21.948937,16.809989 21.91539,16.813723 21.881014,16.813973 21.809013,16.814972 15.952913,17.031973 8.8867917,27.342997 8.7907901,27.499997 6.2107458,31.626008 3.6767025,31.920008 3.5747013,31.932007 3.4756994,31.938008 3.3766975,31.938008 2.7306871,31.938008 2.1486769,31.684006 1.6466684,31.181006L0.75665283,30.292004C0.17664337,29.711003 -0.071361542,29.028 0.017640114,28.259999 0.31264496,25.724993 4.4367161,23.143988 4.6107187,23.035986 14.977896,15.927971 15.118898,10.108958 15.118898,10.050957 15.119398,9.9134565 15.175649,9.7889562 15.266151,9.6988311L15.270997,9.6948476 15.287262,9.5787044C15.614516,7.4211922 16.762526,5.1389308 18.653042,3.246917 20.270056,1.6298987 22.263051,0.48187875 24.265078,0.012880611 24.307329,0.0031301944 24.35008,-0.00099734298 24.392347,0.00020214726z" />
  </g>
</svg>

