<?xml version="1.0" encoding="utf-8"?>
<svg xmlns="http://www.w3.org/2000/svg" height="128" width="128" viewBox="0 0 128 128">
  <g>
    <path id="path1" transform="rotate(0,64,64) translate(30,30.1292934680703) scale(2.1195032842221,2.1195032842221)  " fill="#FFFFFF" d="M5.0409901,24.960985L5.0409901,26.130968C5.0409901,28.099962,7.0759938,29.960985,9.2289784,29.960985L23.728002,29.960985C25.90299,29.960985,27.04099,28.033983,27.04099,26.130968L27.04099,24.960985z M4.0409904,22.960985L28.04099,22.960985C28.592992,22.960985,29.04099,23.408007,29.04099,23.960985L29.04099,26.130968C29.04099,29.453966,26.756994,31.960985,23.728002,31.960985L9.2289784,31.960985C5.9329884,31.960985,3.0409901,29.23601,3.04099,26.130968L3.04099,23.960985C3.0409901,23.408007,3.4889882,22.960985,4.0409904,22.960985z M31.069234,16.017399C31.403623,16.026774 31.727369,16.196702 31.919866,16.499836 32.228862,16.985852 32.085864,17.628872 31.600871,17.937881 26.814935,20.981977 26.44494,20.981977 26.117946,20.981978 25.570953,20.981977 23.939975,20.395959 22.640992,19.228922 22.103999,18.747907 21.428008,18.725906 20.873016,19.169921 20.164026,19.736938 18.330051,20.981977 17.498062,20.981978 16.643073,20.981977 14.621101,19.569933 13.980109,19.055917 13.473116,18.645904 12.858125,18.629903 12.337132,19.016916 9.8801653,20.833973 9.3161728,20.981977 8.8781788,20.981978 8.4391849,20.981977 7.8761923,20.833973 5.4172261,19.014915 4.8932328,18.627903 4.2732413,18.644904 3.759248,19.064917L1.7012762,20.74697C1.5072788,20.904975 1.2742819,20.981977 1.042285,20.981978 0.74028921,20.981977 0.44029331,20.850973 0.23429632,20.598965 -0.12869906,20.153951 -0.062700033,19.497931 0.38229418,19.132919L2.4412661,17.451866C3.6812493,16.436834 5.3742263,16.391833 6.6562088,17.338863 7.9831908,18.320894 8.6091826,18.696906 8.8781788,18.83791 9.1471751,18.696906 9.7731669,18.320894 11.098149,17.340863 12.368132,16.401833 14.050108,16.437834 15.286092,17.430866 16.122081,18.102887 17.075068,18.647904 17.503062,18.84591 17.912056,18.661904 18.788044,18.169889 19.571035,17.542869 20.915015,16.468835 22.747991,16.524837 24.032974,17.677874 24.791963,18.359895 25.657951,18.723907 26.043947,18.852911 26.742936,18.502899 28.778909,17.26286 30.481885,16.179826 30.664132,16.063948 30.8686,16.011774 31.069234,16.017399z M16.333003,9.4609852C16.885003,9.4609852 17.333003,9.9089851 17.333003,10.460985 17.333003,11.012985 16.885003,11.460985 16.333003,11.460985 15.781003,11.460985 15.333003,11.012985 15.333003,10.460985 15.333003,9.9089851 15.781003,9.4609852 16.333003,9.4609852z M24.116985,9.0039721C24.668985,9.0039721 25.116985,9.451972 25.116985,10.003972 25.116985,10.555972 24.668985,11.003972 24.116985,11.003972 23.564985,11.003972 23.116985,10.555972 23.116985,10.003972 23.116985,9.451972 23.564985,9.0039721 24.116985,9.0039721z M20.22899,9.0039721C20.78099,9.0039721 21.22899,9.451972 21.22899,10.003972 21.22899,10.555972 20.78099,11.003972 20.22899,11.003972 19.67699,11.003972 19.22899,10.555972 19.22899,10.003972 19.22899,9.451972 19.67699,9.0039721 20.22899,9.0039721z M12.190988,9.0039721C12.742988,9.0039721 13.190988,9.451972 13.190988,10.003972 13.190988,10.555972 12.742988,11.003972 12.190988,11.003972 11.638988,11.003972 11.190988,10.555972 11.190988,10.003972 11.190988,9.451972 11.638988,9.0039721 12.190988,9.0039721z M7.7909901,8.8779984C8.3429902,8.8779984 8.7909901,9.3259983 8.7909901,9.8779984 8.7909901,10.429998 8.3429902,10.877998 7.7909901,10.877998 7.2389901,10.877998 6.7909901,10.429998 6.7909901,9.8779984 6.7909901,9.3259983 7.2389901,8.8779984 7.7909901,8.8779984z M24.304984,6.3579845C24.856984,6.3579845 25.304984,6.8059845 25.304984,7.3579855 25.304984,7.9099855 24.856984,8.3579855 24.304984,8.3579855 23.752984,8.3579855 23.304984,7.9099855 23.304984,7.3579855 23.304984,6.8059845 23.752984,6.3579845 24.304984,6.3579845z M13.42,5.7070026C13.972,5.7070026 14.42,6.1550026 14.42,6.7070026 14.42,7.2590017 13.972,7.7070017 13.42,7.7070017 12.868001,7.7070017 12.42,7.2590017 12.42,6.7070026 12.42,6.1550026 12.868001,5.7070026 13.42,5.7070026z M9.2509787,5.4570026C9.8029783,5.4570026 10.250979,5.9050026 10.250979,6.4570026 10.250979,7.0090017 9.8029783,7.4570017 9.2509787,7.4570017 8.6989787,7.4570017 8.2509787,7.0090017 8.2509787,6.4570026 8.2509787,5.9050026 8.6989787,5.4570026 9.2509787,5.4570026z M17.583003,5.3579845C18.135003,5.3579845 18.583003,5.8059845 18.583003,6.3579845 18.583003,6.9099846 18.135003,7.3579855 17.583003,7.3579855 17.031003,7.3579855 16.583003,6.9099846 16.583003,6.3579845 16.583003,5.8059845 17.031003,5.3579845 17.583003,5.3579845z M21.013002,4.8519897C21.565002,4.8519897 22.013002,5.2999897 22.013002,5.8519897 22.013002,6.4039879 21.565002,6.8519897 21.013002,6.8519897 20.461002,6.8519897 20.013002,6.4039879 20.013002,5.8519897 20.013002,5.2999897 20.461002,4.8519897 21.013002,4.8519897z M16.207613,2.005497C14.35099,2.005497 12.494491,2.2409954 10.580992,2.7119961 7.2599938,3.5269947 4.946995,7.3679876 4.9469951,10.305983L4.9469951,11.99598 27.134982,11.99598 27.134982,10.305983C27.134982,7.2669878 25.005983,3.489994 21.834985,2.7119961 19.920985,2.2409954 18.064237,2.005497 16.207613,2.005497z M16.207114,0C18.238987,0 20.270986,0.25100136 22.315984,0.75300026 26.594981,1.8049984 29.151981,6.4349899 29.151981,10.305983L29.151981,13.003979C29.151981,13.559978,28.699981,14.011976,28.143981,14.011976L3.9389957,14.011976C3.3819959,14.011976,2.9299962,13.559978,2.9299961,13.003979L2.9299961,10.305983C2.9299962,6.5429897 5.8109944,1.8069973 10.098992,0.75300026 12.143491,0.25100136 14.17524,0 16.207114,0z" />
  </g>
</svg>

