<?xml version="1.0" encoding="utf-8"?>
<svg xmlns="http://www.w3.org/2000/svg" height="128" width="128" viewBox="0 0 128 128">
  <g>
    <ellipse cy="64" cx="64" stroke-width="4.2499984800821" ry="61.875000759959" rx="61.875000759959" stroke="#F1F1F1" fill="transparent" />
    <path id="path1" transform="rotate(0,64,64) translate(30,41.0999401450371) scale(2.12499924004105,2.12499924004105)  " fill="#FF8C00" d="M16.112886,4.8050249C15.211883,4.8050249 14.511869,5.5050419 14.511869,6.4060491 14.511869,7.3070558 15.211883,8.0080493 16.112886,8.0080493 17.013888,8.0080493 17.714877,7.3070558 17.714877,6.4060491 17.714877,5.5050419 17.013888,4.8050249 16.112886,4.8050249z M7.804886,0C8.6058818,2.099905E-07 9.4068786,0.30002052 9.8068734,0.70102429 11.608878,2.2020107 11.708885,2.6030145 13.410884,2.8030282L18.61588,2.8030282C20.216897,2.6030145 20.416909,2.2020107 22.218885,0.70102429 23.920915,-0.90100676 30.026914,-0.801 31.728912,13.013088 33.429935,26.726191 26.723897,20.620133 22.819898,17.217125 21.718883,16.016098 20.717904,15.615125 19.616889,15.615125L18.61588,15.615125 17.013888,15.615125 15.01187,15.615125 13.309871,15.615125 12.609887,15.615125C11.408866,15.615125 10.306874,15.916122 9.1058828,17.317133 5.302867,20.520157 -1.5041529,26.726191 0.29785254,13.013088 1.5988498,2.7030211 5.302867,2.099905E-07 7.804886,0z" />
  </g>
</svg>

