<?xml version="1.0" encoding="utf-8"?>
<svg xmlns="http://www.w3.org/2000/svg" height="128" width="128" viewBox="0 0 128 128">
  <g>
    <rect height="128" width="128" fill="#F1F1F1" />
    <path id="path1" transform="rotate(0,64,64) translate(31.7000004053116,30) scale(2.125,2.125)  " fill="#FF8C00" d="M16.799999,2.8999939C15.699992,2.8999939 14.699993,3.7999878 14.699993,5 14.699993,6.0999756 15.600002,7.0999756 16.799999,7.0999756 17.900003,7.0999756 18.900003,6.1999817 18.900003,5 18.900003,3.7999878 17.999994,2.8999939 16.799999,2.8999939z M15.999995,0C19.6,0,22.999994,1.1999817,25.699989,3.2999878L17.900003,12.399994 30.399999,23C27.799995,28.299988 22.299997,32 15.999995,32 7.1999949,32 1.8779974E-07,24.799988 0,16 1.8779974E-07,7.1999817 7.1999949,0 15.999995,0z" />
  </g>
</svg>

