<?xml version="1.0" encoding="utf-8"?>
<svg xmlns="http://www.w3.org/2000/svg" height="128" width="128" viewBox="0 0 128 128">
  <g>
    <path id="path1" transform="rotate(0,64,64) translate(30.0244180065945,30) scale(2.12500088661946,2.12500088661946)  " fill="#FFFFFF" d="M5.5813254,0C6.1813001,0,6.7823123,0.20001201,7.2823113,0.70098802L9.9843339,3.5029874C10.885272,4.4029806,10.885272,5.9049933,9.9843339,6.9049924L7.5833363,9.6069858C6.0813245,13.61098 8.283286,17.012985 11.586321,20.415966 14.888317,23.717964 18.391303,25.919988 22.29431,24.418983L24.996272,22.016977 25.096309,21.916971C25.596309,21.516977 26.297295,21.215984 26.897269,21.215984 27.498282,21.215984 28.098256,21.416971 28.599294,21.916971L31.301255,24.618965C32.202254,25.519964,32.202254,27.020971,31.301255,28.021976L31.20128,28.121982 28.599294,30.72397C22.494262,34.02597 14.688306,30.623964 7.9832992,23.917976 1.3783292,17.212997 -2.0246805,9.4070041 1.2782927,3.3030057L3.8803395,0.70098802 3.9803151,0.60000536C4.3803386,0.20001201,4.9812898,0,5.5813254,0z" />
  </g>
</svg>

