<?xml version="1.0" encoding="utf-8"?>
<svg xmlns="http://www.w3.org/2000/svg" height="128" width="128" viewBox="0 0 128 128">
  <g>
    <rect height="128" width="128" fill="#F1F1F1" />
    <path id="path1" transform="rotate(0,64,64) translate(30,30.4717689909585) scale(2.1250661185094,2.1250661185094)  " fill="#FF8C00" d="M20.162165,0L24.987096,8.0450459 24.982091,8.0520039C24.644097,8.494997 23.80811,9.2300434 22.125136,8.8649922 22.125136,8.8649922 19.951171,8.0220356 19.084178,10.211001 19.084178,10.211001 17.927197,13.373051 21.753148,15.470036 21.753148,15.470036 23.528115,16.149053 24.512095,14.660038 24.512095,14.660038 24.929097,13.174014 25.137088,13.018008 25.137088,13.018008 25.763085,11.491031 26.892068,11.398013L26.995063,11.394046 31.999005,19.738042 23.807118,24.62403 23.731116,24.574042C23.386119,24.32801 22.733128,23.661017 23.038117,22.258 23.038117,22.258 23.711112,20.521001 21.962144,19.828008 21.962144,19.828008 21.607138,19.698003 21.075148,19.697026 20.187159,19.695012 18.808181,20.05103 17.761199,21.960027 17.761199,21.960027 17.2172,23.380012 18.407185,24.165046 18.407185,24.165046 19.594165,24.498054 19.719165,24.664008 19.719165,24.664008 21.114148,25.23603 21.012145,26.25904L21.006148,26.294013 12.185273,31.555001C12.188279,30.218024,10.531305,27.104011,8.4593275,23.734015L8.0823343,23.127019 7.9883411,23.165044C7.0853541,23.560004 6.5913575,24.763007 6.5913575,24.763007 6.3713596,24.929999 5.9293645,26.504035 5.9293645,26.504035 4.8853729,28.083015 3.0044024,27.363044 3.0044022,27.363044 -1.0505331,25.139045 0.17344868,21.786016 0.17344848,21.786016 1.0934339,19.466008 3.3983941,20.359014 3.3983944,20.359014 4.6393893,20.629033 5.4473765,20.333013 5.9433716,19.971013L6.0173605,19.914006 5.7423704,19.498052C2.9894033,15.348026,0.3964375,11.789004,0.39643729,11.789004L5.7173617,8.6149922 5.67537,8.5419941C5.2043684,7.7720356 4.1863926,7.3540058 4.1863926,7.3540058 4.0203946,7.1350117 2.4464116,6.6920185 2.4464114,6.6920185 0.8664321,5.6480117 1.5864232,3.7659922 1.5864232,3.7659924 3.810391,-0.28796376 7.1633404,0.93603553 7.1633404,0.93603559 9.4833153,1.8560187 8.5903223,4.1610117 8.5903223,4.1610117 8.3373354,5.3250137 8.5813196,6.1069961 8.9123237,6.6100483L8.9613197,6.6810322z" />
  </g>
</svg>

