<?xml version="1.0" encoding="utf-8"?>
<svg xmlns="http://www.w3.org/2000/svg" height="128" width="128" viewBox="0 0 128 128">
  <g>
    <ellipse cy="64" cx="64" stroke-width="4.23504563727121" ry="61.8824771813644" rx="61.8824771813644" stroke="#F1F1F1" fill="transparent" />
    <path id="path1" transform="rotate(0,64,64) translate(42.7220698082697,30) scale(2.11752281863561,2.11752281863561)  " fill="#FF8C00" d="M6.0890047,21.933994C3.8339999,21.933994 2.0000002,23.768037 2.0000002,26.023038 2.0000002,28.27804 3.8339999,30.112999 6.0890047,30.112999 8.3600008,30.112999 11.875,26.597989 11.875,24.326996 11.875,22.107028 7.4459994,21.933994 6.0890047,21.933994z M11.15188,0L13.151907,0.01499939 13.151907,1.0900002C13.151907,3.0390034 15.001932,4.5280056 16.586954,5.2110062 20.097002,6.8840084 20.097002,9.3820124 20.097002,11.036015L20.097002,12.088016 18.096976,12.088016 18.096976,11.036015C18.096976,9.4850121 18.096976,8.1460104 15.760943,7.0320091 14.863931,6.6460085 13.936918,6.0760078 13.151907,5.3400068 13.164908,6.4710083 13.189907,7.6730099 13.231908,8.8250113 13.272908,9.9650126 13.388911,11.204015 13.522912,12.637016 13.807729,15.672114 14.159178,19.426086 13.899935,23.951662L13.874044,24.373673 13.87177,24.484667C13.736549,27.811671 9.3837082,32.112996 6.0890047,32.112996 2.731003,32.112996 2.179226E-07,29.381005 0,26.023038 2.179226E-07,22.665011 2.731003,19.933996 6.0890047,19.933996 8.5630038,19.933996 10.509503,20.334249 11.837502,21.0835L11.987338,21.173107 11.989485,20.979574C12.001766,17.838898 11.747137,15.12052 11.531884,12.824017 11.400883,11.420014 11.275881,10.095013 11.232881,8.8970108 11.083879,4.7820063 11.150879,0.046998978 11.15188,0z" />
  </g>
</svg>

