<?xml version="1.0" encoding="utf-8"?>
<svg xmlns="http://www.w3.org/2000/svg" height="128" width="128" viewBox="0 0 128 128">
  <g>
    <path id="path1" transform="rotate(0,64,64) translate(46.6536349471051,30) scale(2.12499974668029,2.12499974668029)  " fill="#FFFFFF" d="M0.7186488,10.909085L15.430801,10.909085C12.427766,18.715147 17.031815,21.717171 16.230798,31.024239 12.628764,32.325261 4.3216814,32.325261 0.7186488,31.024239 -2.1833809,23.618187 4.9226932,17.914132 0.7186488,10.909085z M5.5226974,0L10.326747,0C10.426746,0,10.526746,0,10.626745,0.099991811L10.726745,0.099991811C10.726745,0.099991654 10.726745,0.19999856 10.826752,0.1999984 11.026751,0.29999023 11.12675,0.50000404 11.12675,0.80100118L11.12675,3.8030243 11.12675,4.0030231C11.627754,4.2030215 12.527765,4.2030215 13.929779,4.0030231 14.129779,5.8050399 15.130795,6.9050546 14.729791,9.4070735L1.519659,9.4070735C0.91864759,6.7050409,2.6206681,6.4050507,2.3206622,4.0030231L4.8216867,4.0030231 4.8216867,3.8030243 4.8216867,1.1010066 4.8216867,0.80100118C4.7216873,0.29999023,5.1226921,0,5.5226974,0z" />
  </g>
</svg>

