<?xml version="1.0" encoding="utf-8"?>
<svg xmlns="http://www.w3.org/2000/svg" height="128" width="128" viewBox="0 0 128 128">
  <g>
    <ellipse cy="64" cx="64" ry="64" rx="64" fill="#7B8199" />
    <path id="path1" transform="rotate(0,64,64) translate(40.6791861057281,30) scale(2.125,2.125)  " fill="#FFFFFF" d="M1.9970116,20.930969C2.0029928,20.982971 2.0579857,21.202942 2.1129784,21.532959 3.0109896,26.987 8.049021,30.115967 13.151016,28.540955 8.1690161,29.401978 3.1489903,25.559998 1.9970116,20.930969z M10.348035,0C13.466019,5.1989746 17.279012,10.396973 20.451013,15.485962 20.927026,16.29895 21.302028,17.178955 21.558009,18.107971 21.813014,19.037964 21.949001,20.015991 21.949001,21.026001 21.949001,27.086975 17.034993,32 10.974988,32 4.9140069,32 -1.935332E-07,27.086975 0,21.026001 -1.935332E-07,20.015991 0.1370239,19.037964 0.39196826,18.107971 0.64801081,17.178955 1.0219737,16.29895 1.4990248,15.485962 4.4559986,10.396973 7.2279746,5.1989746 10.348035,0z" />
  </g>
</svg>

